# Blender v2.78 (sub 0) OBJ File: '1revisions.blend'
# www.blender.org
mtllib pine_tree_02.mtl
o pine_tree_01_Circle
v 0.000000 33.313610 6.181869
v 4.371243 33.313610 4.371235
v 41.088470 32.387543 41.429802
v 0.000000 32.387543 58.448860
v -6.181865 33.313610 0.000004
v -4.371232 33.313610 4.371247
v -41.088470 32.387543 41.429802
v -58.107872 32.387550 0.342163
v 0.000000 33.313610 -6.181861
v -4.371232 33.313610 -4.371239
v -41.088470 32.387558 -40.745491
v 0.000000 32.387558 -57.764568
v 3.345798 33.313610 -4.795982
v 31.449572 32.387558 -44.737980
v 6.181865 33.313610 0.000004
v 58.107872 32.387550 0.342145
v 30.854172 73.094620 1.368612
v 21.817183 70.570419 23.039286
v 0.000000 69.524857 32.015564
v -21.817183 70.570419 23.039286
v -30.854153 73.094620 1.368612
v -21.817183 75.618805 -20.302063
v 16.699114 75.864082 -22.407799
v 0.000000 76.664375 -29.278339
v -35.241550 67.962357 -33.803596
v 0.000000 67.962357 -48.372383
v 26.974274 67.962357 -37.221256
v 50.977501 61.390133 0.298998
v 35.241550 67.962341 36.540802
v -0.540458 68.954453 51.555893
v -35.241550 67.962341 36.540817
v -49.839066 67.962349 1.368611
v 13.742055 108.353325 -19.896496
v 25.390553 110.731140 -0.342125
v 17.953821 112.898346 17.480412
v 0.000000 113.796028 24.862749
v -17.953821 112.898346 17.480412
v -25.390535 110.731140 -0.342125
v -17.953821 108.563911 -18.164680
v 0.000000 107.666229 -25.547018
v -40.911770 105.328957 -0.342126
v -31.200785 103.498421 -30.045561
v 22.142569 105.328964 -32.078602
v 40.911770 105.328957 -0.342126
v 28.928988 105.328949 28.583620
v -0.636707 101.853851 42.093998
v -28.928988 105.328949 28.583639
v 0.000000 105.328964 -41.249317
v 0.000000 150.678574 -15.078485
v 8.446179 149.776962 -11.698128
v 15.605605 146.656876 0.000022
v 11.034826 143.813126 10.662135
v 0.000000 142.635208 15.078529
v -11.034826 143.813126 10.662135
v -15.605605 146.656876 0.000022
v -11.034826 149.500641 -10.662090
v -23.687698 140.270386 23.659906
v -32.292938 141.036362 0.215742
v -23.724846 139.129608 -23.698105
v -1.945084 141.531219 -30.846165
v 17.495989 140.503723 -24.158262
v 32.879429 140.855820 -1.493597
v 23.724846 139.129608 23.698149
v 1.440808 141.608398 32.778141
v 0.000000 199.695557 -0.342128
v -4.417602 17.921093 -5.542867
v -6.247437 17.921093 -1.125257
v 6.247437 17.921093 -1.125257
v 3.381288 17.921095 -5.972118
v 0.000000 17.921093 5.122179
v 4.417610 17.921093 3.292341
v -4.417602 17.921093 3.292349
v 0.000000 17.921095 -7.372694
v -5.225807 0.479925 5.225795
v 0.000000 0.479924 7.390398
v 5.225807 0.479925 5.225795
v 7.390398 0.479925 0.000000
v 3.999891 0.479926 -5.733597
v 0.000000 0.479927 -7.390398
v -5.225807 0.479926 -5.225807
v -7.390398 0.479925 0.000000
v 0.000000 0.479926 -1.733705
v -10.908591 76.141594 -24.790201
v -8.976911 108.115067 -21.855848
v -5.517413 150.089615 -12.870288
v -14.279101 105.758423 -29.914082
v -2.208801 17.921095 -6.457780
v -17.435381 68.391815 -35.743465
v -2.612904 0.479926 -6.308103
v -11.730145 136.159622 -24.101501
v -20.358841 32.817017 -43.910503
v -2.185616 33.313610 -5.276550
v -5.449329 0.479925 2.257182
v -5.332519 17.921093 1.083546
v -31.260592 106.396812 12.373804
v -21.672178 111.814743 8.569142
v -5.276548 33.313610 2.185626
v -45.938381 33.455402 19.139029
v -38.880516 69.030205 17.207762
v -26.335667 71.832520 12.203948
v -13.320216 145.235001 5.331079
v -24.978617 140.197464 10.102132
v 10.483874 139.612000 25.350531
v 5.517413 143.224167 12.870333
v 8.976911 113.347198 21.171581
v 2.208805 17.921093 4.207260
v 19.165686 32.869938 46.683670
v 2.185622 33.313610 5.276552
v 2.612904 0.479924 6.308097
v 15.782644 65.124527 41.859322
v 10.908591 70.047638 27.527424
v 12.528459 99.007286 33.402290
v -26.335667 74.356712 -9.466724
v -25.131552 141.121414 -8.781379
v -5.276548 33.313610 -2.185617
v -39.033455 69.954155 -13.149829
v -21.672178 109.647530 -9.253402
v -13.320216 148.078751 -5.331034
v -46.091320 34.379360 -17.133997
v -6.308103 0.479926 -2.612904
v -5.332519 17.921093 -3.334062
v -31.413528 107.320763 -11.737345
v -15.788901 68.645905 38.506565
v -2.612904 0.479924 6.308097
v -10.908591 70.047638 27.527424
v -12.632620 106.012505 29.255701
v -2.185616 33.313610 5.276557
v -5.517413 143.224167 12.870333
v -10.067698 138.672379 23.325781
v -8.976911 113.347198 21.171581
v -18.712362 33.071098 44.620682
v -2.208801 17.921093 4.207263
v 46.441833 32.938011 19.337870
v 31.764046 105.879417 12.572645
v 5.449329 0.479925 2.257182
v 5.332523 17.921093 1.083542
v 26.669729 135.223022 10.318922
v 26.335678 71.832520 12.203949
v 5.276554 33.313610 2.185620
v 13.320216 145.235001 5.331079
v 21.672188 111.814743 8.569143
v 39.383972 68.512810 17.406601
v 13.320216 148.078735 -5.331034
v 21.672188 109.647530 -9.253403
v 36.352139 61.975395 -16.938601
v 5.332523 17.921093 -3.334058
v 5.276554 33.313610 -2.185611
v 27.593779 105.914215 -14.456511
v 26.335678 74.356712 -9.466724
v 6.308103 0.479926 -2.612904
v 42.271568 32.972813 -19.853174
v 21.311815 139.714859 -11.500544
vn -0.9236 0.0319 -0.3820
vn -0.9234 0.0319 -0.3825
vn 0.8029 0.0472 -0.5943
vn 0.8033 0.0472 -0.5937
vn 0.8031 0.0472 -0.5940
vn 0.3819 -0.0635 0.9220
vn -0.9234 -0.0240 0.3830
vn -0.9238 -0.0240 0.3821
vn -0.9236 -0.0240 0.3826
vn -0.3820 0.0713 -0.9214
vn -0.3817 0.0713 -0.9215
vn 0.3813 0.0713 -0.9217
vn 0.3817 0.0713 -0.9215
vn 0.9236 -0.0240 0.3826
vn -0.3815 -0.0635 0.9222
vn -0.3824 -0.0635 0.9218
vn -0.3819 -0.0635 0.9220
vn -0.3800 0.1193 0.9173
vn -0.3800 0.1188 0.9173
vn -0.3795 0.1193 0.9175
vn 0.8406 0.0658 0.5376
vn 0.3827 0.0009 -0.9239
vn 0.3827 0.0005 -0.9239
vn -0.3827 0.0009 -0.9239
vn -0.9757 0.0450 0.2145
vn -0.9757 0.0445 0.2146
vn -0.9756 0.0450 0.2150
vn 0.3800 0.1193 0.9173
vn 0.8038 0.0204 -0.5945
vn 0.8038 0.0200 -0.5945
vn 0.8036 0.0204 -0.5948
vn -0.9233 0.0358 -0.3824
vn -0.0000 -1.0000 -0.0000
vn -0.3827 0.0006 -0.9239
vn -0.3817 0.0716 -0.9215
vn -0.8406 0.0658 0.5376
vn -0.8407 0.0653 0.5376
vn -0.9236 -0.0236 0.3826
vn -0.9233 0.0354 -0.3824
vn -0.9234 0.0324 -0.3825
vn -0.3819 -0.0630 0.9220
vn 0.9757 0.0450 0.2145
vn 0.9233 0.0358 -0.3824
vn 0.9233 0.0355 -0.3824
vn 0.9233 0.0319 -0.3828
vn 0.9234 0.0322 -0.3825
vn 0.9234 0.0319 -0.3825
vn -0.0208 -0.9998 -0.0032
vn -0.0174 -0.9991 -0.0395
vn 0.0196 -0.9998 0.0046
vn -0.0074 -0.9998 0.0179
vn -0.0170 -0.9997 0.0159
vn -0.0210 -0.9996 -0.0165
vn 0.0130 -0.9956 -0.0923
vn -0.0004 -0.9998 0.0215
vn 0.7588 0.4955 0.4228
vn 0.7550 0.4884 0.4375
vn 0.7513 0.4893 0.4429
vn 0.7695 0.4678 0.4348
vn -0.4428 0.4816 0.7563
vn -0.4451 0.4870 0.7514
vn -0.4455 0.4875 0.7509
vn -0.4444 0.4871 0.7518
vn -0.7797 0.4883 -0.3920
vn -0.7736 0.5022 -0.3864
vn -0.7827 0.4778 -0.3989
vn -0.7851 0.4901 -0.3788
vn 0.7851 0.4593 -0.4155
vn 0.7952 0.4485 -0.4081
vn 0.7969 0.4489 -0.4042
vn 0.7990 0.4337 -0.4165
vn 0.2444 0.5029 0.8291
vn 0.2352 0.5038 0.8312
vn 0.2308 0.5035 0.8326
vn 0.2460 0.4889 0.8369
vn -0.8227 0.4971 0.2757
vn -0.8155 0.5104 0.2728
vn -0.8267 0.4940 0.2694
vn -0.8180 0.5019 0.2812
vn -0.2218 0.4655 -0.8568
vn -0.2247 0.4720 -0.8524
vn -0.2241 0.4536 -0.8626
vn -0.2356 0.4637 -0.8541
vn 0.1269 -0.8838 0.4503
vn 0.1400 -0.8904 0.4332
vn 0.1196 -0.8907 0.4387
vn 0.1450 -0.8865 0.4395
vn -0.1920 -0.8999 0.3916
vn -0.1753 -0.9055 0.3865
vn -0.1804 -0.9034 0.3890
vn -0.1906 -0.9021 0.3870
vn -0.4220 -0.9052 -0.0500
vn -0.3976 -0.9157 -0.0586
vn -0.4269 -0.9035 -0.0380
vn -0.4043 -0.9125 -0.0619
vn 0.0330 -0.9986 -0.0417
vn 0.0279 -0.9977 -0.0611
vn 0.0284 -0.9977 -0.0616
vn 0.0333 -0.9975 -0.0625
vn 0.2645 -0.9629 0.0533
vn 0.2749 -0.9612 0.0215
vn 0.2597 -0.9648 0.0413
vn 0.2894 -0.9569 0.0231
vn -0.6142 -0.7715 0.1658
vn -0.5993 -0.7863 0.1501
vn -0.6031 -0.7776 0.1779
vn -0.6093 -0.7774 0.1563
vn 0.0190 -0.9630 -0.2689
vn 0.0314 -0.9592 -0.2811
vn 0.0045 -0.9604 -0.2785
vn 0.0293 -0.9584 -0.2840
vn 0.1116 -0.9898 -0.0891
vn 0.1111 -0.9865 -0.1200
vn 0.1104 -0.9883 -0.1051
vn 0.1219 -0.9843 -0.1278
vn 0.2423 0.4315 0.8689
vn 0.2425 0.4313 0.8690
vn 0.2422 0.4313 0.8691
vn 0.2409 0.4354 0.8674
vn -0.8727 0.4325 0.2267
vn -0.8793 0.4228 0.2191
vn -0.8797 0.4217 0.2195
vn -0.8842 0.4095 0.2247
vn -0.1885 0.3917 -0.9006
vn -0.1769 0.3926 -0.9025
vn -0.1757 0.3915 -0.9033
vn -0.1905 0.3775 -0.9062
vn 0.3249 0.4595 -0.8266
vn 0.3310 0.4655 -0.8209
vn 0.3315 0.4657 -0.8205
vn 0.3196 0.4631 -0.8267
vn 0.8369 0.4194 0.3516
vn 0.8304 0.4365 0.3462
vn 0.8393 0.4086 0.3586
vn 0.8412 0.4212 0.3391
vn -0.5299 0.4104 0.7421
vn -0.5298 0.4111 0.7418
vn -0.5297 0.4107 0.7422
vn -0.5297 0.4060 0.7447
vn -0.7779 0.4198 -0.4676
vn -0.7729 0.4119 -0.4826
vn -0.7717 0.4104 -0.4859
vn -0.7886 0.3898 -0.4756
vn 0.2908 -0.9457 0.1450
vn 0.2632 -0.9528 0.1516
vn 0.2969 -0.9455 0.1334
vn 0.2734 -0.9490 0.1567
vn -0.2291 -0.9617 0.1507
vn -0.2184 -0.9585 0.1830
vn -0.2222 -0.9603 0.1685
vn -0.2273 -0.9545 0.1928
vn -0.0485 -0.7444 -0.6660
vn -0.0640 -0.7564 -0.6509
vn -0.0389 -0.7520 -0.6580
vn -0.0684 -0.7503 -0.6576
vn 0.4884 -0.8662 -0.1059
vn 0.4665 -0.8790 -0.0984
vn 0.4780 -0.8696 -0.1235
vn 0.4765 -0.8734 -0.1005
vn 0.1014 -0.9609 0.2578
vn 0.0902 -0.9589 0.2690
vn 0.1170 -0.9561 0.2686
vn 0.0913 -0.9581 0.2715
vn -0.0522 -0.9866 0.1544
vn -0.0492 -0.9833 0.1753
vn -0.0490 -0.9834 0.1749
vn -0.0371 -0.9823 0.1835
vn -0.3611 -0.9188 -0.1595
vn -0.3726 -0.9194 -0.1261
vn -0.3567 -0.9222 -0.1496
vn -0.3883 -0.9124 -0.1292
vn 0.3071 -0.7783 -0.5477
vn 0.2909 -0.7861 -0.5454
vn 0.2957 -0.7835 -0.5465
vn 0.2912 -0.7860 -0.5454
vn 0.3540 0.4755 -0.8054
vn 0.3537 0.4760 -0.8052
vn 0.3540 0.4756 -0.8053
vn 0.7390 0.4685 0.4842
vn 0.7287 0.4515 0.5149
vn 0.7091 0.4539 0.5396
vn 0.7587 0.3910 0.5210
vn -0.5041 0.4421 0.7419
vn -0.5063 0.4547 0.7327
vn -0.5073 0.4560 0.7312
vn -0.5041 0.4549 0.7341
vn -0.7863 0.4343 -0.4395
vn -0.7718 0.4632 -0.4356
vn -0.7957 0.3990 -0.4556
vn -0.8058 0.4332 -0.4038
vn 0.8386 0.4211 -0.3455
vn 0.8569 0.4053 -0.3187
vn 0.8576 0.4013 -0.3217
vn 0.8665 0.3678 -0.3375
vn 0.1370 0.4517 0.8816
vn 0.1175 0.4456 0.8875
vn 0.0970 0.4490 0.8882
vn 0.1406 0.4079 0.9022
vn -0.8544 0.4541 0.2525
vn -0.8400 0.4823 0.2486
vn -0.8654 0.4376 0.2439
vn -0.8438 0.4591 0.2781
vn -0.1424 0.4036 -0.9038
vn -0.1434 0.4043 -0.9033
vn -0.1427 0.4056 -0.9029
vn -0.1392 0.4149 -0.8992
vn 0.2114 -0.9752 -0.0652
vn 0.2133 -0.9654 -0.1499
vn 0.2112 -0.9702 -0.1191
vn 0.2534 -0.9532 -0.1652
vn 0.0025 -0.7114 0.7028
vn 0.0502 -0.7421 0.6685
vn -0.0055 -0.7376 0.6752
vn 0.0565 -0.7184 0.6933
vn -0.2747 -0.8361 0.4748
vn -0.2305 -0.8438 0.4845
vn -0.2414 -0.8395 0.4867
vn -0.2660 -0.8351 0.4815
vn -0.3647 -0.7693 -0.5246
vn -0.2994 -0.8030 -0.5154
vn -0.3955 -0.7791 -0.4863
vn -0.3412 -0.7673 -0.5430
vn 0.2432 -0.9624 -0.1209
vn 0.2369 -0.9563 -0.1713
vn 0.2362 -0.9569 -0.1693
vn 0.2497 -0.9531 -0.1710
vn 0.3366 -0.9269 0.1658
vn 0.3737 -0.9244 0.0764
vn 0.3368 -0.9334 0.1239
vn 0.4185 -0.9031 0.0968
vn -0.6417 -0.7533 0.1441
vn -0.5874 -0.7960 0.1459
vn -0.6212 -0.7574 0.2011
vn -0.6227 -0.7687 0.1464
vn -0.0535 -0.9622 -0.2671
vn -0.0145 -0.9607 -0.2772
vn -0.0844 -0.9511 -0.2970
vn -0.0186 -0.9547 -0.2969
vn 0.5940 0.3462 -0.7262
vn 0.6336 0.3950 0.6652
vn -0.7196 0.4016 0.5665
vn -0.6561 0.3676 -0.6591
vn 0.3129 0.4326 -0.8456
vn 0.3136 0.4328 -0.8452
vn 0.3137 0.4316 -0.8458
vn 0.9154 0.3930 0.0867
vn 0.0642 0.3516 0.9339
vn 0.5330 -0.7187 0.4464
vn 0.5406 -0.7164 0.4411
vn 0.5269 -0.7442 0.4106
vn 0.5398 -0.7169 0.4413
vn 0.0776 -0.9819 0.1726
vn 0.0808 -0.9811 0.1756
vn 0.0919 -0.9788 0.1830
vn 0.0770 -0.9805 0.1807
vn 0.2536 -0.8712 0.4203
vn 0.2569 -0.8715 0.4176
vn 0.2435 -0.8784 0.4113
vn 0.2551 -0.8717 0.4184
vn -0.4498 0.4638 -0.7633
vn -0.4489 0.4640 -0.7637
vn -0.4504 0.4508 -0.7706
vn -0.4492 0.4639 -0.7635
vn -0.0077 -0.9998 0.0173
vn 0.0529 0.3412 -0.9385
vn 0.2298 -0.9340 -0.2734
vn 0.2254 -0.9038 -0.3637
vn 0.2430 -0.9205 -0.3059
vn 0.2755 -0.8843 -0.3769
vn -0.7405 0.4273 0.5187
vn -0.7277 0.4564 0.5120
vn -0.7637 0.4073 0.5009
vn -0.7207 0.4250 0.5477
vn 0.3926 -0.9102 -0.1317
vn 0.3682 -0.9217 -0.1219
vn 0.3836 -0.9114 -0.1491
vn 0.3882 -0.9127 -0.1275
vn 0.2023 -0.9721 -0.1186
vn 0.1988 -0.9681 -0.1523
vn 0.2068 -0.9700 -0.1278
vn 0.2117 -0.9642 -0.1595
vn -0.7612 0.4754 0.4412
vn -0.7537 0.4898 0.4383
vn -0.7690 0.4719 0.4313
vn -0.7551 0.4779 0.4488
vn 0.0161 -0.9990 0.0408
vn -0.9133 0.3983 0.0848
vn -0.1750 -0.9790 -0.1049
vn -0.1787 -0.9771 -0.1157
vn -0.2011 -0.9694 -0.1410
vn -0.1697 -0.9777 -0.1239
vn 0.4866 0.4545 0.7461
vn 0.4895 0.4508 0.7464
vn 0.4457 0.4590 0.7685
vn 0.4908 0.4509 0.7456
vn -0.4238 -0.6972 -0.5782
vn -0.4274 -0.6971 -0.5756
vn -0.4173 -0.7094 -0.5680
vn -0.4260 -0.6975 -0.5762
vn 0.4815 0.4216 0.7684
vn 0.4797 0.4263 0.7669
vn 0.4815 0.4214 0.7685
vn 0.4814 0.4220 0.7682
vn -0.1887 -0.9734 -0.1296
vn -0.1913 -0.9725 -0.1329
vn -0.2012 -0.9690 -0.1433
vn -0.1875 -0.9726 -0.1375
vn 0.0126 -0.9998 -0.0169
vn 0.1277 0.4087 0.9037
vn 0.4731 -0.8738 0.1125
vn 0.5163 -0.8543 0.0601
vn 0.4656 -0.8789 0.1040
vn 0.5393 -0.8386 0.0765
vn -0.8959 0.4290 -0.1155
vn -0.8829 0.4521 -0.1265
vn -0.9125 0.3805 -0.1503
vn -0.8977 0.4237 -0.1207
vn 0.1962 -0.9581 0.2087
vn 0.1776 -0.9606 0.2136
vn 0.2037 -0.9593 0.1955
vn 0.1887 -0.9582 0.2149
vn -0.8564 0.4463 -0.2596
vn -0.8576 0.4346 -0.2751
vn -0.8525 0.4390 -0.2837
vn -0.8647 0.4238 -0.2696
vn 0.3350 -0.9352 0.1146
vn 0.3491 -0.9323 0.0946
vn 0.3302 -0.9370 0.1137
vn 0.3568 -0.9292 0.0967
vn -0.0458 -0.9967 0.0665
vn -0.7216 0.3918 -0.5707
vn -0.0809 -0.9424 -0.3244
vn -0.1149 -0.9230 -0.3674
vn -0.0798 -0.9244 -0.3730
vn -0.0974 -0.9103 -0.4023
vn 0.1473 -0.8252 -0.5452
vn 0.1337 -0.8363 -0.5316
vn 0.1343 -0.8287 -0.5433
vn 0.1440 -0.8262 -0.5447
vn -0.1967 0.4152 0.8882
vn -0.1950 0.4101 0.8910
vn -0.1967 0.4154 0.8881
vn -0.1963 0.4151 0.8883
vn 0.0317 -0.9924 -0.1192
vn 0.0162 -0.9908 -0.1347
vn 0.0303 -0.9901 -0.1372
vn 0.0196 -0.9890 -0.1468
vn 0.0272 -0.9996 0.0037
vn -0.6446 0.3666 0.6709
vn -0.5015 -0.8634 -0.0552
vn -0.4590 -0.8877 -0.0367
vn -0.5279 -0.8491 -0.0203
vn -0.4799 -0.8757 -0.0542
vn -0.4621 -0.8803 -0.1076
vn -0.4777 -0.8742 -0.0870
vn -0.4575 -0.8829 -0.1058
vn -0.4848 -0.8700 -0.0894
vn 0.8787 0.4181 0.2303
vn 0.8733 0.4284 0.2318
vn 0.8813 0.4049 0.2436
vn 0.8787 0.4177 0.2312
vn -0.1612 -0.9807 -0.1103
vn -0.1420 -0.9831 -0.1156
vn -0.1687 -0.9805 -0.1005
vn -0.1498 -0.9817 -0.1174
vn 0.8133 0.5164 0.2680
vn 0.8136 0.5082 0.2823
vn 0.8072 0.5126 0.2926
vn 0.8217 0.4961 0.2805
vn -0.0008 -0.9997 -0.0229
vn 0.7233 0.3931 0.5677
vn -0.4254 -0.8585 0.2865
vn -0.3603 -0.8835 0.2992
vn -0.4035 -0.8437 0.3540
vn -0.4184 -0.8562 0.3029
vn 0.7139 0.4360 -0.5480
vn 0.7489 0.4104 -0.5203
vn 0.7437 0.4231 -0.5175
vn 0.7670 0.3680 -0.5257
vn -0.3041 -0.9214 0.2417
vn -0.2997 -0.9137 0.2746
vn -0.3114 -0.9171 0.2490
vn -0.3127 -0.9066 0.2832
vn 0.7576 0.3469 -0.5528
vn 0.7535 0.3656 -0.5464
vn 0.7678 0.3431 -0.5411
vn 0.7539 0.3500 -0.5560
vn -0.5551 -0.7724 0.3088
vn -0.5383 -0.7887 0.2968
vn -0.5428 -0.7745 0.3249
vn -0.5507 -0.7780 0.3023
vn -0.0169 -0.9998 -0.0135
vn 0.8974 0.3650 -0.2478
vn 0.3309 0.5218 -0.7863
vn 0.3353 0.5141 -0.7895
vn 0.3345 0.5139 -0.7900
vn 0.3429 0.5021 -0.7939
vn 0.8274 0.3733 -0.4195
vn 0.8250 0.3880 -0.4108
vn 0.8349 0.3680 -0.4093
vn 0.8257 0.3763 -0.4203
vn -0.9026 0.4073 -0.1395
vn -0.5240 0.4092 -0.7470
vn -0.5178 0.4189 -0.7459
vn -0.5239 0.4074 -0.7480
vn -0.5232 0.4087 -0.7478
vn -0.4687 0.4114 -0.7817
vn -0.4693 0.4107 -0.7818
vn -0.4557 0.4130 -0.7885
vn -0.4695 0.4106 -0.7816
vn -0.7815 0.4513 0.4307
vn -0.7976 0.4362 0.4166
vn -0.7921 0.4419 0.4211
vn -0.8005 0.4208 0.4269
vn 0.3942 0.5123 0.7630
vn 0.3951 0.5110 0.7634
vn 0.3804 0.5142 0.7687
vn 0.3956 0.5110 0.7631
vn -0.8483 0.4732 -0.2377
vn -0.8427 0.4835 -0.2370
vn -0.8514 0.4612 -0.2500
vn -0.8493 0.4744 -0.2314
vn -0.1100 0.4273 0.8974
vn -0.1026 0.4500 0.8871
vn -0.1226 0.4413 0.8889
vn -0.0852 0.4299 0.8989
vn -0.1960 0.4696 0.8608
vn -0.1923 0.4799 0.8560
vn -0.2009 0.4760 0.8562
vn -0.1886 0.4722 0.8611
vn 0.8366 0.4945 0.2358
vn 0.8384 0.4743 0.2685
vn 0.8157 0.4900 0.3074
vn 0.8578 0.4391 0.2672
vn 0.7456 0.4739 -0.4685
vn 0.7608 0.4625 -0.4553
vn 0.7602 0.4657 -0.4530
vn 0.7661 0.4467 -0.4620
usemtl 795548
s off
f 121//1 67//2 5//2 115//2
f 146//3 69//4 13//5 147//5
f 106//6 71//6 2//6 108//6
f 94//7 72//8 6//9 97//9
f 87//10 66//11 10//11 92//11
f 69//12 73//13 9//13 13//13
f 136//14 68//14 15//14 139//14
f 132//15 70//16 1//17 127//17
f 124//18 75//18 70//19 132//20
f 135//21 77//21 68//21 136//21
f 78//22 79//22 73//22 69//23
f 89//24 80//24 66//24 87//24
f 93//25 74//25 72//26 94//27
f 109//28 76//28 71//28 106//28
f 150//29 78//29 69//30 146//31
f 120//32 81//32 67//32 121//32
f 76//33 109//33 75//33 82//33
f 74//33 93//33 81//33 82//33
f 80//33 89//33 79//33 82//33
f 79//33 78//33 82//33
f 77//33 135//33 76//33 82//33
f 75//33 124//33 74//33 82//33
f 81//33 120//33 80//33 82//33
f 78//33 150//33 77//33 82//33
f 79//24 89//24 87//24 73//34
f 73//10 87//35 92//11 9//11
f 81//36 93//36 94//37 67//37
f 67//7 94//38 97//9 5//9
f 75//28 109//28 106//28 70//28
f 70//6 106//6 108//6 1//6
f 80//32 120//32 121//32 66//39
f 66//1 121//40 115//2 10//2
f 74//18 124//18 132//19 72//19
f 72//15 132//41 127//17 6//17
f 76//42 135//42 136//42 71//42
f 71//14 136//14 139//14 2//14
f 77//43 150//43 146//44 68//44
f 68//45 146//46 147//47 15//47
usemtl 8BC34A
f 108//48 2//48 3//48 107//48
f 97//49 6//49 7//49 98//49
f 92//50 10//50 11//50 91//50
f 13//51 9//51 12//51 14//51
f 139//52 15//52 16//52 133//52
f 127//53 1//53 4//53 131//53
f 115//54 5//54 8//54 119//54
f 147//55 13//55 14//55 151//55
f 133//56 16//57 17//58 138//59
f 131//60 4//61 19//62 125//63
f 119//64 8//65 21//66 113//67
f 151//68 14//69 23//70 149//71
f 107//72 3//73 18//74 111//75
f 98//76 7//77 20//78 100//79
f 91//80 11//81 22//82 83//83
f 83//84 22//85 25//86 88//87
f 23//88 24//89 26//90 27//91
f 138//92 17//93 28//94 142//95
f 125//96 19//97 30//98 123//99
f 113//100 21//101 32//102 116//103
f 149//104 23//105 27//106 145//107
f 111//108 18//109 29//110 110//111
f 100//112 20//113 31//114 99//115
f 110//116 29//117 35//118 105//119
f 99//120 31//121 37//122 96//123
f 88//124 25//125 39//126 84//127
f 27//128 26//129 40//130 33//131
f 142//132 28//133 34//134 141//135
f 123//136 30//137 36//138 130//139
f 116//140 32//141 38//142 117//143
f 117//144 38//145 41//146 122//147
f 144//148 33//149 43//150 148//151
f 105//152 35//153 45//154 112//155
f 96//156 37//157 47//158 95//159
f 84//160 39//161 42//162 86//163
f 33//164 40//165 48//166 43//167
f 141//168 34//169 44//170 134//171
f 130//172 36//173 46//174 126//175
f 43//176 48//177 49//177 50//178
f 134//179 44//180 51//181 140//182
f 126//183 46//184 53//185 128//186
f 122//187 41//188 55//189 118//190
f 148//191 43//192 50//193 143//194
f 112//195 45//196 52//197 104//198
f 95//199 47//200 54//201 101//202
f 86//203 42//204 56//205 85//206
f 101//207 54//208 57//209 102//210
f 85//211 56//212 59//213 90//214
f 50//215 49//216 60//217 61//218
f 140//219 51//220 62//221 137//222
f 128//223 53//224 64//225 129//226
f 118//227 55//228 58//229 114//230
f 143//231 50//232 61//233 152//234
f 104//235 52//236 63//237 103//238
f 62//239 152//239 65//239
f 64//240 103//240 65//240
f 58//241 102//241 65//241
f 60//242 90//242 65//242
f 61//243 60//244 65//245
f 63//246 137//246 65//246
f 57//247 129//247 65//247
f 49//248 85//249 90//250 60//251
f 40//252 84//253 86//254 48//255
f 24//256 83//257 88//258 26//259
f 12//260 91//261 83//262 24//263
f 9//264 92//264 91//264 12//264
f 65//265 90//265 59//265
f 55//266 101//267 102//268 58//269
f 41//270 95//271 101//272 55//273
f 38//274 96//275 95//276 41//277
f 21//278 100//279 99//280 32//281
f 8//282 98//283 100//284 21//285
f 5//286 97//286 98//286 8//286
f 65//287 102//287 57//287
f 53//288 104//289 103//290 64//291
f 46//292 112//293 104//294 53//295
f 36//296 105//297 112//298 46//299
f 30//300 110//301 105//302 36//303
f 19//304 111//305 110//306 30//307
f 1//308 108//308 107//308 4//308
f 65//309 103//309 63//309
f 56//310 118//311 114//312 59//313
f 42//314 122//315 118//316 56//317
f 39//318 117//319 122//320 42//321
f 25//322 116//323 117//324 39//325
f 22//326 113//327 116//328 25//329
f 10//330 115//330 119//330 11//330
f 65//331 114//331 58//331
f 54//332 128//333 129//334 57//335
f 37//336 130//337 126//338 47//339
f 31//340 123//341 130//342 37//343
f 20//344 125//345 123//346 31//347
f 6//348 127//348 131//348 7//348
f 65//349 129//349 64//349
f 52//350 140//351 137//352 63//353
f 35//354 141//355 134//356 45//357
f 29//358 142//359 141//360 35//361
f 18//362 138//363 142//364 29//365
f 3//366 133//367 138//368 18//369
f 2//370 139//370 133//370 3//370
f 65//371 137//371 62//371
f 51//372 143//373 152//374 62//375
f 44//376 148//377 143//378 51//379
f 34//380 144//381 148//382 44//383
f 28//384 145//385 144//386 34//387
f 17//388 149//389 145//390 28//391
f 15//392 147//392 151//392 16//392
f 65//393 152//393 61//393
usemtl 4CAF50
f 14//394 12//395 24//396 23//397
f 145//398 27//399 33//400 144//401
f 59//402 114//402 65//402
f 48//403 86//404 85//405 49//406
f 26//407 88//408 84//409 40//410
f 32//411 99//412 96//413 38//414
f 4//415 107//416 111//417 19//418
f 11//419 119//420 113//421 22//422
f 47//423 126//424 128//425 54//426
f 7//427 131//428 125//429 20//430
f 45//431 134//432 140//433 52//434
f 16//435 151//436 149//437 17//438
