mtllib materials.mtl
v 0.122769 -1.766441 0.0105837
v -0.236872 -1.758386 0.02449405
v -0.2153002 -0.8904008 0.07959086
v 0.1443408 -0.8984559 0.06568047
v 0.1134857 -1.750385 -0.2387274
v 0.1350574 -0.8823997 -0.1836306
v -0.2245836 -0.8743446 -0.1697202
v -0.2461553 -1.74233 -0.224817
v 0.1840563 0.6757112 -0.04404122
v -0.7009479 -0.9602577 0.4723275
v -0.8883883 -1.001323 0.00358355
v -0.4014024 -0.9668878 0.750636
v -0.003227234 -0.9851764 0.8420098
v 0.3868869 -1.010223 0.721965
v 0.6644092 -1.035317 0.422668
v 0.7753478 -1.076097 -0.0426241
v 0.5435209 -0.9981363 -0.4059954
v 0.2413528 -1.121015 -0.6680532
v -0.02648605 -1.05879 -0.7506667
v -0.3704708 -1.007396 -0.7273724
v -0.621678 -1.013606 -0.5186621
v 0.04791939 0.8220937 0.1333492
v -0.5550891 -0.5581038 0.5362419
v -0.7465773 -0.5470417 0.1987048
v -0.2210899 -0.5821269 0.7326823
v 0.1659256 -0.6126739 0.7353899
v 0.5022569 -0.6415598 0.5436393
v 0.6977842 -0.6610447 0.2088099
v 0.6406265 -0.807905 -0.1140344
v 0.5004784 -0.6250607 -0.5210335
v 0.1321248 -0.6501904 -0.7143446
v -0.276714 -0.5873027 -0.6904249
v -0.6082073 -0.7133868 -0.4589689
v -0.7278838 -0.5193402 -0.1700449
v 0.1818519 1.237909 0.01494434
v 0.004360884 -0.07984555 0.6350748
v -0.3080221 -0.04847693 0.5377266
v 0.3230872 -0.1141751 0.5624194
v 0.5627544 -0.1422669 0.3392282
v 0.6591438 -0.1565938 0.02530518
v 0.5864279 -0.1533171 -0.2952341
v 0.364091 -0.1333146 -0.5365016
v 0.1239739 -0.08392215 -0.6292344
v -0.235438 -0.07643545 -0.5223766
v -0.4335299 0.06762648 -0.3006313
v -0.5936606 -0.05259633 -0.07381266
v -0.530359 -0.02847433 0.2964593
v -0.5918931 -0.0519228 -0.06347351
v -0.5686934 -0.05470049 -0.08587431
v 0.1179596 1.471781 -0.05688444
v 0.566471 0.5838463 -0.03376627
v 0.5343611 0.6034229 0.1934921
v 0.4802323 0.564626 -0.2464964
v 0.2987527 0.5509112 -0.3876974
v 0.07065958 0.5463772 -0.4195345
v -0.1429297 0.5522387 -0.3334772
v -0.3683062 0.5188046 -0.1556963
v -0.316894 0.5865018 0.07467426
v -0.3329697 0.5290766 0.3591083
v -0.04684705 0.656796 0.3984069
v 0.1789173 0.623971 0.4604424
v 0.3925069 0.6181095 0.374385
vn 0.03713344 -0.06422457 0.9972444
vn -0.03713344 0.06422457 -0.9972444
vn -0.02479513 -0.9976846 -0.06332965
vn 0.02479513 0.9976846 0.06332965
vn 0.9990027 -0.02237515 -0.03863995
vn -0.9990027 0.02237515 0.03863995
vn -0.8060458 0.5233087 0.2764746
vn -0.5781415 0.5130189 0.6344795
vn -0.1754267 0.478716 0.8602654
vn 0.2910755 0.4245518 0.8573394
vn 0.697957 0.3641443 0.6166482
vn 0.9294177 0.3138654 0.1940907
vn 0.8351907 0.2815216 -0.4724427
vn 0.5578519 0.288107 -0.7783287
vn 0.3460875 0.3176364 -0.882797
vn -0.006229823 0.3779274 -0.9258143
vn -0.5730844 0.4632603 -0.6759913
vn -0.774724 0.4838684 -0.4070309
vn -0.05362836 -0.9979838 0.03394551
vn 0.07008405 -0.9957822 0.05921206
vn 0.07405172 -0.9954771 0.059513
vn -0.1478923 -0.9890018 -0.001879617
vn -0.2144916 -0.9759202 -0.03966197
vn 0.6730601 -0.5072424 -0.5382335
vn -0.04088977 -0.9934969 0.1062636
vn -0.05202154 -0.995835 0.07487636
vn -0.7636225 0.464529 0.4484346
vn -0.4366893 0.4226142 0.7941661
vn 0.02422031 0.3885053 0.9211282
vn 0.48362 0.3721916 0.7922027
vn 0.8090703 0.3774303 0.4505014
vn 0.8732859 0.3663022 -0.3212389
vn 0.9204603 0.3583713 -0.1559579
vn 0.3825801 0.4773468 -0.7910579
vn 0.0262515 0.4999264 -0.86567
vn -0.6156991 0.4985026 -0.6102539
vn -0.6294988 0.4988063 -0.5957546
vn -0.8650333 0.5016766 -0.006164703
vn -0.07876282 -0.996821 0.01201416
vn -0.1220242 -0.9275942 0.3530993
vn 0.04825798 -0.904798 -0.4230978
vn 0.04847156 -0.9046535 -0.4233823
vn -0.1865744 -0.8813947 0.4339739
vn -0.2126831 -0.8496552 0.4825475
vn -0.0778949 -0.9938576 -0.07861033
vn -0.2267115 0.4395488 0.8691368
vn 0.2443509 0.385756 0.8896544
vn 0.6619987 0.3396781 0.6681141
vn 0.9115406 0.313963 0.2655578
vn 0.9261211 0.3154434 -0.2068702
vn 0.7046747 0.3433588 -0.6209174
vn 0.4003927 0.3872097 -0.8305145
vn -0.2485673 0.4331087 -0.8663898
vn -0.4935088 0.4587597 -0.7389105
vn -0.8078076 0.5062113 -0.3019885
vn -0.8550462 0.5060427 0.1132116
vn -0.6221074 0.4862763 0.6136104
vn -0.1040507 -0.9944812 0.01343811
vn 0.1752162 -0.7467175 0.6416482
vn -0.225396 -0.9720366 0.06589011
vn -0.3592318 -0.6955153 -0.6222628
vn -0.04858947 -0.9961329 0.07320131
vn -0.04858356 -0.9961329 0.0732048
vn 0.8883243 0.4509645 0.08666635
vn 0.8316261 0.410326 -0.3742067
vn 0.5512002 0.3758273 -0.7449377
vn 0.1221865 0.3567125 -0.9261894
vn -0.340461 0.3581032 -0.8693954
vn -0.6066532 0.3818475 -0.697255
vn -0.8915295 0.4479301 0.0673347
vn -0.8945425 0.445249 0.03933457
vn -0.3364604 0.5102124 0.7915034
vn -0.1594038 0.5058415 0.8477705
vn 0.3337871 0.5083774 0.7938128
vn 0.7061027 0.4868538 0.5141911
vn 0.007672845 -0.9961877 0.08689713
vn 0.3009524 -0.9310286 0.2064301
vn 0.4204434 -0.8936906 -0.1566669
vn -0.2366731 -0.8896194 0.3905935
vt -0.008943811 0.02790184
vt 0.007161335 -0.004294812
vt 0.08496991 0.03462596
vt 0.06886476 0.06682261
vt 0.008943812 0.02790184
vt -0.06886476 0.06682261
vt -0.08496991 0.03462596
vt -0.007161336 -0.004294812
vt 0.02662999 0.02134724
vt 0.003037738 0.02961801
vt -0.00887217 -0.004354837
vt 0.01472008 -0.0126256
vt -0.02662999 0.02134724
vt -0.01472008 -0.01262561
vt 0.008872171 -0.004354836
vt -0.003037737 0.02961801
vt 0.01736926 -0.006698309
vt 0.06730092 0.06454655
vt 0.04682826 0.07889473
vt -0.003103402 0.007649871
vt -0.01736926 -0.006698308
vt 0.003103403 0.007649872
vt -0.04682826 0.07889473
vt -0.06730092 0.06454656
vt -0.02579293 0.225796
vt -0.04330526 0.03355667
vt 0.007175834 0.02942504
vt 0.07547666 0.2093359
vt -0.02545354 0.0464336
vt 0.01077531 0.02746677
vt 0.1469556 0.1609221
vt -0.002326818 0.04472461
vt 0.02429654 0.01368483
vt 0.1843177 0.112694
vt 0.01559811 0.03372248
vt 0.03435022 -0.002617974
vt 0.2038676 0.0767536
vt 0.02880838 0.02093258
vt 0.04311268 -0.01737743
vt 0.2119016 0.06844236
vt 0.03353149 0.01977315
vt 0.05313438 -0.0240492
vt -0.1408949 0.1835856
vt -0.02867217 0.04932483
vt 0.007757765 0.07364484
vt -0.2055798 0.115693
vt -0.04110327 0.02000365
vt -0.0391008 0.06179814
vt -0.2112706 0.1061137
vt -0.05047584 0.007795519
vt -0.03580905 0.03247812
vt -0.2101727 0.1069458
vt -0.05474054 -0.002204431
vt -0.03869291 0.02874017
vt -0.1881472 0.1399705
vt -0.04238554 0.01333642
vt -0.02576469 0.04145729
vt -0.16058 0.1703816
vt -0.06380317 -0.003637682
vt -0.02123785 0.03671638
vt 0.04362624 -0.07559475
vt 0.07976881 -0.05646399
vt 0.1015038 -0.021825
vt 0.1030074 0.01904077
vt 0.08387662 0.05518333
vt -0.04136886 -0.02785127
vt 0.0003509379 -0.06907888
vt 0.05086251 -0.06533827
vt -0.05348443 0.002708546
vt -0.04122717 -0.02757009
vt 0.05102737 -0.06500004
vt -0.05364267 0.02504597
vt -0.06415626 -0.008188945
vt 0.03538083 -0.083019
vt -0.03842096 0.04562309
vt -0.05710882 0.02382609
vt 0.02730074 -0.08788
vt 0.03136085 0.1134401
vt -0.01198611 0.1071438
vt -0.04398907 0.08018824
vt 0.04571992 0.08218972
vt -0.02992977 0.04962559
vt 0.05220281 -0.07445766
vt 0.08567938 0.05614563
vt 0.04476516 0.08125933
vt 0.04830161 -0.07548226
vt 0.01302156 0.2360619
vt -0.02370089 0.08453522
vt 0.0145044 0.07763815
vt 0.1284461 0.19449
vt 0.02132259 0.08242501
vt 0.05198521 0.05861286
vt 0.1872064 0.1341457
vt 0.04759363 0.06444889
vt 0.06996167 0.03271744
vt 0.2136463 0.08268841
vt 0.05967799 0.04442374
vt 0.07599382 0.009195798
vt 0.2262465 0.04095416
vt 0.06478672 0.02653505
vt 0.0761955 -0.01057362
vt 0.003754564 0.2419893
vt 0.02389717 0.0679542
vt 0.05383267 0.08781619
vt 0.2277307 0.07670788
vt 0.06357517 0.05865824
vt 0.06495685 0.01191095
vt -0.2331233 0.05744517
vt -0.06954308 0.01081378
vt -0.06805358 0.05246269
vt -0.2286729 0.07914717
vt -0.07873319 0.006883929
vt -0.06207539 0.04482177
vt -0.204447 0.134952
vt -0.06110226 0.03082353
vt -0.05044343 0.07181083
vt -0.2030657 0.1368773
vt -0.09506156 0.02168735
vt -0.05988777 0.03251975
vt -0.1136691 0.2105599
vt -0.06271908 0.0605453
vt -0.0295228 0.07694463
vt 0.01218823 -0.07565213
vt 0.05047733 -0.06923664
vt 0.08042893 -0.04453611
vt 0.09401751 -0.008169027
vt 0.08760203 0.03012008
vt 0.0629015 0.06007168
vt 0.01652089 0.05003599
vt -0.008373592 0.01661272
vt -0.01084573 -0.02474729
vt 0.006958722 0.09336203
vt -0.0390427 0.1017934
vt -0.09036801 0.04090672
vt 0.006946594 0.09339122
vt -0.09038223 0.04093981
vt -0.08262431 -0.0006941186
vt 0.0906041 0.05986074
vt 0.05472122 0.05811374
vt 0.01366302 -0.06513082
vt 0.09294238 0.06137661
vt 0.02245017 -0.06736214
vt 0.05614158 -0.08217513
vt 0.0555305 0.06140861
vt -0.03487594 -0.05601404
vt -0.001396951 -0.07182823
vt 0.184148 0.1995175
vt 0.07118173 0.105901
vt 0.0944865 0.08272074
vt 0.2318538 0.1404507
vt 0.09931874 0.0779003
vt 0.1164545 0.04985027
vt 0.2545528 0.09758415
vt 0.1138751 0.05561852
vt 0.1269694 0.02546926
vt 0.2638857 0.07942041
vt 0.1204952 0.04529268
vt 0.1321822 0.01457049
vt 0.2064045 0.1877042
vt 0.09140493 0.09427434
vt 0.1153718 0.07177927
vt -0.2535659 0.1231848
vt -0.1243103 0.04923506
vt -0.1119268 0.07968318
vt -0.2640067 0.1003103
vt -0.131462 0.03637702
vt -0.1205886 0.06022488
vt -0.2537725 0.1325348
vt -0.1276196 0.05514664
vt -0.1129924 0.08968012
vt -0.2406881 0.1541284
vt -0.1412486 0.06144492
vt -0.1132161 0.07893296
vt -0.180664 0.2157936
vt -0.100878 0.08780454
vt -0.08883811 0.1155617
vt -0.08464956 0.2658522
vt -0.06942206 0.1186437
vt -0.03326691 0.1242725
vt -0.03222835 0.1244342
vt 0.08662682 0.2596848
vt 0.01879667 0.1289953
vt 0.04919969 0.1165016
vt 0.05678873 -0.05456907
vt 0.0768209 -0.02850856
vt 0.08113901 0.004076597
vt 0.06858604 0.03445522
vt 0.04252552 0.0544874
vt 0.009940379 0.0588055
vt -0.02043825 0.04625252
vt 0.02641013 -0.06712205
vt 0.07291251 0.06117039
vt 0.08333062 0.02514292
vt 0.1105168 0.00636628
vt -0.01940132 0.02286272
vt -0.03643314 0.002941138
vt -0.02495965 -0.06252591
vt -0.1064728 0.09001221
vt -0.1509505 0.01691056
vt -0.1399437 -0.01127227
vt -0.1390712 -0.008631927
vt -0.00977617 0.05120436
vt 0.004340861 -0.05172294
vt 0.005758301 -0.05463296
vt 0.04194878 -0.06003005
vt 0.004341888 -0.05172216
vt 0.004719757 -0.05447714
vt 0.005759337 -0.05463218
vt 0.2779302 0.0004781834
vt 0.1784285 -0.0003418303
vt 0.1812832 -0.02319915
vt -0.2742323 0.09232762
vt -0.1784589 0.06533331
vt -0.1748181 0.08807866
vt -0.2855326 0.0941117
vt -0.189663 0.06746107
vt -0.1861038 0.09021933
vt -0.2844203 0.1203377
vt -0.1926462 0.081883
vt -0.1862631 0.1040158
vt -0.2749496 0.149589
vt -0.1909983 0.09617151
vt -0.180965 0.1169065
vt -0.2576446 0.1767598
vt -0.1857355 0.09692924
vt -0.1737633 0.1232323
vt -0.1022463 0.2872081
vt -0.08232605 0.1897174
vt -0.05777268 0.1894026
vt -0.1113028 0.2843527
vt -0.1140973 0.1719117
vt -0.08943211 0.187281
vt 0.1749494 0.2229869
vt 0.1067687 0.1571241
vt 0.1162944 0.1270161
vt 0.20298 0.1941138
vt 0.1155037 0.1466886
vt 0.1327147 0.1304795
vt 0.2449193 0.1170831
vt 0.149154 0.09005973
vt 0.1579337 0.06876365
vt 0.2656033 0.05294596
vt 0.166831 0.04089261
vt 0.1722492 0.018504
vt 0.07521804 0.05270965
vt 0.05439147 0.06255141
vt 0.03143425 0.06066134
vt 0.01249774 0.04754588
vt 0.00265598 0.0267193
vt 0.004546049 0.003762086
vt 0.0384881 -0.02501618
vt 0.09022357 0.01081592
vt 0.0883335 0.03377316
vt 0.04848058 0.06430485
vt 0.05980083 0.03771469
vt 0.08435485 0.03797449
vt 0.01604651 0.08767129
vt 0.04229458 0.07519626
vt 0.05561467 0.1038285
vt 0.106444 -0.08007433
vt 0.1427189 -0.05747288
vt 0.1505207 -0.03515502
o group1923187748
g mesh1923187748
usemtl mat20
f 4/4/1 3/3/1 2/2/1 1/1/1
f 8/8/2 7/7/2 6/6/2 5/5/2
f 2/12/3 8/11/3 5/10/3 1/9/3
f 6/16/4 7/15/4 3/14/4 4/13/4
f 5/20/5 6/19/5 4/18/5 1/17/5
f 3/24/6 7/23/6 8/22/6 2/21/6
o group76049231
g mesh76049231
usemtl mat10
f 11/27/7 10/26/7 9/25/7
f 10/30/8 12/29/8 9/28/8
f 12/33/9 13/32/9 9/31/9
f 13/36/10 14/35/10 9/34/10
f 14/39/11 15/38/11 9/37/11
f 15/42/12 16/41/12 9/40/12
f 16/45/13 17/44/13 9/43/13
f 17/48/14 18/47/14 9/46/14
f 18/51/15 19/50/15 9/49/15
f 19/54/16 20/53/16 9/52/16
f 20/57/17 21/56/17 9/55/17
f 21/60/18 11/59/18 9/58/18
f 15/65/19 14/64/19 13/63/19 12/62/19 10/61/19
f 10/68/20 11/67/20 21/66/20
f 10/71/21 21/70/21 20/69/21
f 10/74/22 20/73/22 19/72/22
f 10/77/23 19/76/23 18/75/23
f 18/80/24 17/79/24 16/78/24
f 10/83/25 18/82/25 16/81/25
f 10/86/26 16/85/26 15/84/26
o group2051624038
g mesh2051624038
usemtl mat10
f 24/89/27 23/88/27 22/87/27
f 23/92/28 25/91/28 22/90/28
f 25/95/29 26/94/29 22/93/29
f 26/98/30 27/97/30 22/96/30
f 27/101/31 28/100/31 22/99/31
f 28/104/32 29/103/32 22/102/32
f 29/107/33 30/106/33 22/105/33
f 30/110/34 31/109/34 22/108/34
f 31/113/35 32/112/35 22/111/35
f 32/116/36 33/115/36 22/114/36
f 33/119/37 34/118/37 22/117/37
f 34/122/38 24/121/38 22/120/38
f 28/128/39 27/127/39 26/126/39 25/125/39 23/124/39 24/123/39
f 32/131/40 31/130/40 30/129/40
f 32/134/41 30/133/41 29/132/41
f 33/137/42 32/136/42 29/135/42
f 33/140/43 29/139/43 28/138/43
f 34/143/44 33/142/44 28/141/44
f 24/146/45 34/145/45 28/144/45
o group660713414
g mesh660713414
usemtl mat10
f 37/149/46 36/148/46 35/147/46
f 36/152/47 38/151/47 35/150/47
f 38/155/48 39/154/48 35/153/48
f 39/158/49 40/157/49 35/156/49
f 40/161/50 41/160/50 35/159/50
f 41/164/51 42/163/51 35/162/51
f 42/167/52 43/166/52 35/165/52
f 43/170/53 44/169/53 35/168/53
f 44/173/54 45/172/54 35/171/54
f 45/176/55 46/175/55 35/174/55
f 46/180/56 48/179/56 47/178/56 35/177/56
f 47/183/57 37/182/57 35/181/57
f 47/191/58 42/190/58 41/189/58 40/188/58 39/187/58 38/186/58 36/185/58 37/184/58
f 45/194/59 44/193/59 43/192/59
f 45/197/60 43/196/60 42/195/60
f 49/201/61 46/200/61 45/199/61 42/198/61
f 47/205/62 48/204/62 49/203/62 42/202/62
f 48/208/63 46/207/63 49/206/63
o group889057557
g mesh889057557
usemtl mat10
f 52/211/64 51/210/64 50/209/64
f 51/214/65 53/213/65 50/212/65
f 53/217/66 54/216/66 50/215/66
f 54/220/67 55/219/67 50/218/67
f 55/223/68 56/222/68 50/221/68
f 56/226/69 57/225/69 50/224/69
f 57/229/70 58/228/70 50/227/70
f 58/232/71 59/231/71 50/230/71
f 59/235/72 60/234/72 50/233/72
f 60/238/73 61/237/73 50/236/73
f 61/241/74 62/240/74 50/239/74
f 62/244/75 52/243/75 50/242/75
f 62/253/76 61/252/76 58/251/76 56/250/76 55/249/76 54/248/76 53/247/76 51/246/76 52/245/76
f 58/256/77 57/255/77 56/254/77
f 60/259/78 59/258/78 58/257/78
f 61/262/79 60/261/79 58/260/79
